<?xml version="1.0" standalone="no"?>
<!DOCTYPE svg PUBLIC "-//W3C//DTD SVG 20010904//EN"
 "http://www.w3.org/TR/2001/REC-SVG-20010904/DTD/svg10.dtd">
<svg version="1.0" xmlns="http://www.w3.org/2000/svg"
 width="500.000000pt" height="500.000000pt" viewBox="0 0 500.000000 500.000000"
 preserveAspectRatio="xMidYMid meet">
<metadata>
Created by potrace 1.14, written by Peter Selinger 2001-2017
</metadata>
<g transform="translate(0.000000,500.000000) scale(0.100000,-0.100000)"
fill="#000000" stroke="none">
<path d="M2670 3791 c-35 -11 -108 -49 -115 -60 -3 -6 -39 -8 -88 -4 -186 12
-451 -71 -497 -158 -19 -34 32 -73 123 -95 l78 -18 -3 -144 -3 -145 -75 -28
c-41 -16 -101 -36 -133 -45 -38 -10 -56 -19 -49 -26 11 -11 101 11 199 47 l63
24 0 -161 c0 -142 2 -159 16 -154 9 3 18 6 20 6 2 0 5 44 5 98 1 53 4 128 8
167 l6 69 63 36 c35 20 95 59 133 88 69 52 70 52 93 35 23 -17 24 -23 22 -123
-1 -95 2 -110 24 -155 64 -124 210 -78 313 97 33 57 42 65 82 76 80 21 75 32
75 -157 0 -94 4 -172 8 -175 24 -15 30 17 34 171 1 89 6 165 11 169 4 4 32 0
61 -9 42 -14 66 -30 105 -72 69 -76 93 -144 95 -262 1 -79 4 -93 17 -93 18 0
29 38 29 96 0 23 5 34 18 37 16 4 16 5 0 6 -10 0 -18 7 -18 15 0 8 -3 21 -6
30 -9 23 25 21 112 -10 50 -17 79 -22 90 -16 12 7 4 14 -41 32 l-57 23 7 136
c17 336 21 496 13 499 -4 2 -8 23 -8 47 0 43 0 43 43 50 81 12 97 17 91 26 -3
5 -13 7 -22 5 -10 -3 -46 -8 -82 -10 -36 -3 -81 -9 -101 -14 -22 -6 -59 -6
-90 -1 -102 17 -282 -21 -363 -76 l-36 -24 -19 38 c-48 93 -156 141 -251 112z
m107 -32 c120 -45 171 -242 117 -454 -43 -169 -187 -338 -253 -298 -9 5 -26
29 -38 53 -19 36 -23 61 -23 133 l0 89 38 -5 c42 -5 135 11 127 22 -2 4 -28 6
-58 3 -30 -2 -63 1 -75 7 -20 10 -20 14 -8 54 19 59 36 95 68 144 39 58 17 70
-30 17 l-34 -39 21 42 c37 75 24 138 -36 172 -17 9 -17 11 2 26 53 43 124 56
182 34z m601 -64 c30 -12 44 -25 49 -43 15 -62 -82 -171 -252 -284 l-90 -59
-5 158 c-5 145 -7 158 -23 158 -17 0 -19 -13 -22 -169 -2 -93 -8 -173 -12
-177 -5 -5 -29 -15 -55 -23 l-46 -14 14 41 c21 59 34 195 25 261 -10 74 5 94
94 130 120 48 237 55 323 21z m82 4 c0 -18 -2 -19 -15 -5 -8 8 -15 17 -15 20
0 3 7 6 15 6 9 0 15 -9 15 -21z m-950 -4 c0 -3 -10 -22 -23 -43 -13 -20 -29
-52 -35 -71 -15 -43 -15 -141 -1 -178 10 -26 7 -31 -33 -67 -43 -38 -133 -102
-175 -125 l-23 -12 0 126 0 125 40 0 c53 0 51 15 -2 26 -37 8 -44 13 -48 39
-7 43 -40 47 -40 6 0 -17 -3 -31 -7 -31 -18 0 -111 28 -132 39 -69 37 45 117
224 156 58 13 255 20 255 10z m87 -103 c-11 -62 -86 -186 -103 -169 -4 4 -8
35 -8 70 -1 64 13 111 47 161 l20 29 25 -28 c19 -22 23 -36 19 -63z m852 -267
c-4 -132 -8 -255 -8 -272 -1 -30 -4 -33 -33 -33 -30 0 -35 5 -56 53 -13 30
-37 71 -54 92 -34 41 -136 95 -180 95 -50 0 -37 16 56 69 116 66 195 127 243
190 21 26 39 48 39 47 1 0 -2 -109 -7 -241z m-865 98 c-13 -32 -24 -64 -24
-72 0 -11 -4 -10 -19 3 -19 17 -19 19 22 72 23 30 43 54 43 54 1 0 -9 -26 -22
-57z"/>
<path d="M1669 3743 c-27 -25 -70 -76 -94 -113 -51 -77 -144 -259 -176 -346
-28 -77 -35 -84 -78 -84 -65 0 -141 -13 -141 -23 0 -6 31 -7 88 -3 l89 6 -25
-87 c-14 -49 -28 -90 -31 -93 -4 -3 -14 -18 -24 -33 -23 -36 -58 -49 -94 -36
-57 19 -120 133 -108 191 4 17 2 28 -4 28 -12 0 -16 116 -3 123 4 3 57 15 117
27 61 12 114 26 120 31 15 14 -23 11 -121 -11 -137 -30 -128 -36 -121 73 6 86
40 273 51 284 3 3 55 16 116 28 113 23 146 35 94 35 -34 0 -293 -52 -370 -75
-84 -24 -63 -35 28 -14 45 10 84 16 86 14 2 -2 -6 -50 -17 -107 -12 -56 -25
-141 -29 -188 l-7 -85 -60 -13 c-71 -16 -102 -38 -40 -29 22 4 55 9 73 13 l32
7 0 -49 c0 -66 25 -177 51 -231 36 -75 106 -101 184 -69 18 8 42 12 53 10 28
-8 36 10 67 134 18 73 33 116 44 121 9 5 66 11 126 15 61 3 145 9 188 13 l77
6 0 -126 c0 -69 4 -128 8 -131 24 -15 34 17 39 128 4 82 10 122 20 132 8 8 10
14 4 14 -7 0 -11 53 -11 159 0 241 -26 376 -75 395 -43 16 -76 6 -126 -41z
m110 -11 c22 -55 31 -137 32 -309 1 -128 -2 -178 -11 -183 -13 -8 -358 -25
-365 -19 -4 5 84 219 120 289 67 133 171 265 199 254 8 -3 19 -17 25 -32z"/>
<path d="M915 3745 c-228 -37 -495 -89 -495 -97 0 -14 50 -9 202 19 81 14 151
23 155 19 14 -14 15 -184 4 -473 -7 -157 -9 -288 -6 -291 15 -16 25 26 36 156
7 78 15 142 18 142 4 0 8 11 9 25 1 14 -2 25 -6 25 -4 0 -7 97 -7 215 0 208 1
216 20 220 57 13 221 36 303 41 51 4 95 11 98 15 10 17 -192 7 -331 -16z"/>
<path d="M4386 3708 c-55 -88 -125 -215 -162 -296 l-35 -77 -34 63 c-18 35
-45 78 -60 97 -14 19 -31 49 -37 65 -5 17 -16 30 -24 30 -9 0 -14 20 -16 73
-2 54 -7 72 -17 72 -10 0 -19 -28 -31 -100 -34 -196 -84 -357 -165 -521 -47
-96 -84 -140 -109 -131 -37 14 -78 142 -91 285 -6 66 -6 72 12 72 10 0 29 -7
41 -16 15 -10 22 -11 22 -3 0 8 4 8 15 -1 9 -7 18 -10 21 -7 3 3 27 -7 52 -22
76 -44 92 -47 57 -11 -49 51 -88 70 -160 77 l-66 6 4 129 c3 91 1 128 -7 125
-35 -11 -49 -337 -20 -475 19 -95 52 -163 86 -180 35 -17 98 8 131 51 35 46
89 156 82 167 -4 6 0 10 8 10 10 0 16 16 20 48 3 26 21 96 41 157 l34 110 0
-301 c-1 -166 2 -306 6 -313 20 -32 26 20 28 247 l2 247 6 -179 c3 -116 9
-181 16 -183 11 -4 24 195 24 376 l1 76 21 -25 c11 -14 36 -57 55 -95 31 -67
33 -73 23 -126 -18 -95 20 -167 64 -124 20 21 20 74 0 140 l-17 52 40 90 c22
50 69 141 104 203 80 141 80 140 44 -192 -36 -334 -45 -448 -36 -472 8 -20 8
-20 20 1 6 12 11 39 11 60 0 21 14 153 30 293 16 140 33 306 36 368 7 110 7
112 -15 112 -15 0 -31 -16 -55 -52z m-189 -560 c-2 -13 -4 -5 -4 17 -1 22 1
32 4 23 2 -10 2 -28 0 -40z"/>
<path d="M1170 3274 c-32 -12 -32 -13 -9 -13 14 -1 34 6 45 14 23 17 11 17
-36 -1z"/>
<path d="M521 3204 c-1 -25 15 -46 54 -70 l30 -19 -30 36 c-16 20 -35 44 -42
55 -11 18 -12 18 -12 -2z"/>
<path d="M1380 2895 c0 -20 33 -75 59 -99 42 -40 39 -27 -9 45 -37 54 -50 68
-50 54z"/>
<path d="M1984 2808 l-19 -23 23 19 c21 18 27 26 19 26 -2 0 -12 -10 -23 -22z"/>
<path d="M1385 2790 c3 -5 8 -10 11 -10 2 0 4 5 4 10 0 6 -5 10 -11 10 -5 0
-7 -4 -4 -10z"/>
<path d="M1968 2760 c-12 -18 -22 -37 -20 -43 2 -5 -4 -25 -13 -44 -9 -18 -15
-50 -13 -70 l3 -37 27 56 c28 57 54 155 45 164 -3 3 -16 -9 -29 -26z"/>
<path d="M2548 2783 c23 -2 61 -2 85 0 23 2 4 4 -43 4 -47 0 -66 -2 -42 -4z"/>
<path d="M2418 2773 c12 -2 30 -2 40 0 9 3 -1 5 -23 4 -22 0 -30 -2 -17 -4z"/>
<path d="M2790 2761 c47 -10 98 -24 114 -30 16 -6 31 -9 33 -7 8 8 -124 45
-179 51 -41 4 -33 1 32 -14z"/>
<path d="M2271 2750 c-35 -10 -75 -26 -90 -37 -53 -39 -124 -171 -137 -258 -3
-16 6 2 19 40 63 186 110 229 288 264 34 7 37 9 14 9 -16 0 -59 -8 -94 -18z"/>
<path d="M2950 2706 c0 -9 4 -15 9 -12 14 9 60 -51 93 -119 23 -47 28 -54 26
-30 -3 26 3 32 47 57 28 15 46 28 40 28 -5 0 -30 -11 -54 -25 -23 -14 -44 -25
-46 -25 -2 0 -14 19 -28 43 -34 56 -87 108 -87 83z"/>
<path d="M2200 2680 c8 -5 24 -10 34 -10 26 0 18 6 -19 14 -22 5 -26 4 -15 -4z"/>
<path d="M2888 2673 c7 -3 16 -2 19 1 4 3 -2 6 -13 5 -11 0 -14 -3 -6 -6z"/>
<path d="M2273 2663 c9 -2 23 -2 30 0 6 3 -1 5 -18 5 -16 0 -22 -2 -12 -5z"/>
<path d="M2755 2660 l-60 -7 50 -1 c28 0 68 3 90 7 32 7 34 9 10 8 -16 0 -57
-3 -90 -7z"/>
<path d="M2343 2653 c15 -2 39 -2 55 0 15 2 2 4 -28 4 -30 0 -43 -2 -27 -4z"/>
<path d="M2498 2643 c23 -2 61 -2 85 0 23 2 4 4 -43 4 -47 0 -66 -2 -42 -4z"/>
<path d="M3233 2643 c9 -2 23 -2 30 0 6 3 -1 5 -18 5 -16 0 -22 -2 -12 -5z"/>
<path d="M3188 2633 c7 -3 16 -2 19 1 4 3 -2 6 -13 5 -11 0 -14 -3 -6 -6z"/>
<path d="M3305 2626 c36 -16 59 -41 73 -81 9 -27 10 -28 11 -6 1 28 -68 101
-95 101 -13 -1 -10 -5 11 -14z"/>
<path d="M2145 2531 c-9 -28 -14 -61 -12 -73 4 -20 4 -19 6 5 0 15 5 27 11 27
5 0 7 6 4 13 -3 8 0 26 6 42 6 15 9 30 6 32 -2 2 -11 -18 -21 -46z"/>
<path d="M3251 2566 c2 -2 18 -6 34 -10 22 -5 26 -4 15 4 -14 9 -59 15 -49 6z"/>
<path d="M2565 2550 c-3 -5 1 -10 10 -10 9 0 13 5 10 10 -3 6 -8 10 -10 10 -2
0 -7 -4 -10 -10z"/>
<path d="M2608 2553 c7 -3 16 -2 19 1 4 3 -2 6 -13 5 -11 0 -14 -3 -6 -6z"/>
<path d="M2710 2546 c0 -2 7 -6 15 -10 8 -3 15 -1 15 4 0 6 -7 10 -15 10 -8 0
-15 -2 -15 -4z"/>
<path d="M2772 2530 c0 -14 2 -19 5 -12 2 6 2 18 0 25 -3 6 -5 1 -5 -13z"/>
<path d="M2827 2535 c-5 -11 0 -15 16 -15 12 0 18 4 12 8 -5 4 -13 11 -16 15
-4 4 -9 1 -12 -8z"/>
<path d="M3117 2528 c-28 -17 -36 -27 -31 -41 3 -10 10 -40 15 -65 l8 -47 -4
50 c-2 28 -5 57 -7 64 -2 8 15 25 37 37 22 13 36 24 30 24 -5 0 -27 -10 -48
-22z"/>
<path d="M3221 2537 c-6 -8 -8 -17 -4 -20 9 -9 13 -57 5 -54 -8 2 -12 -7 -12
-24 0 -6 7 -8 18 -4 14 5 -39 -59 -73 -88 -7 -6 -6 -10 2 -14 9 -3 9 -11 -3
-29 -23 -34 -32 -30 -37 19 -3 23 -3 9 -1 -30 2 -44 0 -73 -6 -73 -6 0 -10 -8
-10 -17 0 -10 -7 -31 -15 -47 -20 -39 -19 -43 8 -20 12 11 31 26 41 34 18 13
19 13 11 0 -5 -9 1 -7 14 5 33 28 68 93 76 140 4 22 7 79 6 128 0 65 3 86 12
80 7 -4 7 0 -2 10 -16 20 -16 20 -30 4z"/>
<path d="M2453 2523 c-15 -3 -23 -12 -23 -24 0 -11 -6 -22 -14 -25 -10 -4 -12
-13 -7 -32 11 -39 58 -53 156 -46 85 6 316 48 350 63 31 15 77 20 94 11 9 -5
24 -11 34 -14 23 -7 22 -27 -3 -33 -11 -3 -20 -9 -20 -14 0 -5 14 -3 30 6 57
29 30 62 -75 89 -32 9 -71 15 -85 15 -19 -1 -17 -3 10 -8 27 -5 4 -10 -100
-23 -248 -32 -254 -32 -244 -17 4 7 -5 4 -20 -9 -16 -12 -39 -22 -51 -22 -25
0 -40 26 -27 44 8 10 24 48 19 45 -1 -1 -12 -4 -24 -6z m-3 -73 c0 -5 -5 -10
-11 -10 -5 0 -7 5 -4 10 3 6 8 10 11 10 2 0 4 -4 4 -10z"/>
<path d="M3327 2489 c3 -24 7 -46 9 -48 9 -10 3 65 -5 78 -6 10 -8 -1 -4 -30z"/>
<path d="M3937 2524 c7 -3 10 -11 7 -17 -2 -7 5 -18 17 -26 20 -12 21 -11 14
6 -4 10 -8 24 -8 31 0 6 -10 12 -21 11 -12 0 -16 -3 -9 -5z"/>
<path d="M2721 2504 c0 -11 3 -14 6 -6 3 7 2 16 -1 19 -3 4 -6 -2 -5 -13z"/>
<path d="M3393 2475 c0 -22 2 -30 4 -17 2 12 2 30 0 40 -3 9 -5 -1 -4 -23z"/>
<path d="M2082 2474 c-30 -21 -28 -41 7 -58 28 -15 28 -16 29 -107 1 -51 4
-94 7 -97 3 -3 5 38 5 90 l0 96 63 -14 c114 -24 362 -36 529 -25 84 5 164 14
178 20 19 8 13 8 -25 3 -27 -4 -169 -7 -315 -7 -272 0 -395 12 -424 41 -9 8
-16 10 -18 4 -4 -12 -48 16 -48 30 0 5 12 16 28 24 15 8 22 15 17 16 -6 0 -21
-7 -33 -16z"/>
<path d="M2295 2475 l-30 -13 48 -3 c26 -1 53 -2 59 -3 7 -1 14 7 16 17 3 13
-3 17 -30 17 -18 -1 -46 -7 -63 -15z"/>
<path d="M3187 2421 c-3 -14 -1 -18 9 -14 16 6 18 19 5 27 -5 3 -11 -3 -14
-13z"/>
<path d="M3321 2414 c0 -11 3 -14 6 -6 3 7 2 16 -1 19 -3 4 -6 -2 -5 -13z"/>
<path d="M2032 2395 c0 -16 2 -22 5 -12 2 9 2 23 0 30 -3 6 -5 -1 -5 -18z"/>
<path d="M3376 2389 c-8 -42 0 -50 9 -9 4 17 5 34 2 36 -2 3 -7 -10 -11 -27z"/>
<path d="M1741 2308 c-6 -153 -6 -157 15 -185 11 -15 27 -29 35 -31 12 -5 12
-3 0 11 -10 13 -11 20 -2 31 6 7 8 22 4 31 -5 14 -3 17 10 12 9 -3 17 -2 17 2
0 5 -6 12 -12 14 -8 4 -7 6 4 6 9 1 25 -15 37 -35 26 -43 26 -42 -1 -47 -13
-2 -8 -3 9 -1 18 1 35 -2 38 -7 4 -5 -4 -9 -16 -9 -32 0 -18 -10 21 -15 32 -4
55 -15 31 -15 -7 0 -9 -4 -6 -10 10 -16 33 -12 37 6 3 14 6 13 22 -5 17 -19
17 -21 3 -21 -22 0 -22 -26 1 -33 9 -2 26 -8 37 -12 19 -6 19 -6 1 9 -10 8
-15 19 -12 25 4 5 2 12 -4 16 -5 3 -10 18 -10 33 0 15 -5 34 -10 42 -8 11 -9
7 -4 -15 8 -35 5 -33 -24 16 l-22 36 25 -5 c35 -6 109 -92 146 -169 17 -35 33
-62 36 -60 2 3 -2 18 -11 35 -8 16 -12 32 -9 36 4 3 0 6 -8 6 -10 1 -8 5 6 16
20 16 20 16 -1 10 -24 -7 -35 10 -64 99 -10 33 -19 52 -19 43 -1 -9 4 -29 9
-44 l10 -26 -35 31 c-19 17 -48 34 -63 37 -15 4 -35 14 -46 23 -18 16 -65 98
-77 136 -6 17 -7 17 -8 3 -1 -25 -5 -23 -48 23 l-38 40 -4 -83z m79 -83 c0 -9
-6 -12 -15 -9 -8 4 -12 10 -9 15 8 14 24 10 24 -6z m-34 -60 c1 -14 -2 -22 -7
-19 -11 6 -12 44 -1 44 4 0 8 -11 8 -25z"/>
<path d="M2023 2305 c0 -33 2 -45 4 -27 2 18 2 45 0 60 -2 15 -4 0 -4 -33z"/>
<path d="M3043 2300 c0 -36 2 -50 4 -32 2 17 2 47 0 65 -2 17 -4 3 -4 -33z"/>
<path d="M3356 2325 c-9 -26 -7 -32 5 -12 6 10 9 21 6 23 -2 3 -7 -2 -11 -11z"/>
<path d="M2173 2240 c0 -25 2 -35 4 -22 2 12 2 32 0 45 -2 12 -4 2 -4 -23z"/>
<path d="M2615 2243 c-87 -28 -141 -60 -195 -118 -29 -31 -30 -35 -9 -21 14 9
29 14 32 11 4 -3 5 -2 3 1 -3 3 1 12 7 19 9 9 17 10 31 3 13 -7 21 -6 27 3 7
11 9 10 9 -4 0 -10 5 -15 10 -12 6 3 10 1 10 -5 0 -7 6 -10 14 -7 8 3 30 -3
50 -14 35 -18 37 -18 42 -2 22 65 59 124 89 143 19 12 35 24 35 26 0 12 -85 0
-155 -23z"/>
<path d="M2032 2215 c0 -16 2 -22 5 -12 2 9 2 23 0 30 -3 6 -5 -1 -5 -18z"/>
<path d="M3032 2210 c0 -14 2 -19 5 -12 2 6 2 18 0 25 -3 6 -5 1 -5 -13z"/>
<path d="M2132 2170 c0 -14 2 -19 5 -12 2 6 2 18 0 25 -3 6 -5 1 -5 -13z"/>
<path d="M2182 2165 c0 -11 3 -29 8 -40 11 -25 11 1 0 35 -6 20 -8 21 -8 5z"/>
<path d="M3021 2164 c0 -11 3 -14 6 -6 3 7 2 16 -1 19 -3 4 -6 -2 -5 -13z"/>
<path d="M1820 2150 c0 -5 5 -10 11 -10 5 0 7 5 4 10 -3 6 -8 10 -11 10 -2 0
-4 -4 -4 -10z"/>
<path d="M3224 2118 l-29 -33 33 29 c30 28 37 36 29 36 -2 0 -16 -15 -33 -32z"/>
<path d="M2140 2126 c0 -8 4 -17 9 -20 5 -4 7 3 4 14 -6 23 -13 26 -13 6z"/>
<path d="M3006 2115 c-4 -17 -14 -25 -29 -26 -17 -1 -18 -2 -4 -6 9 -2 17 -9
17 -14 0 -5 -8 -9 -17 -9 -14 0 -15 -2 -5 -9 12 -7 11 -14 -2 -40 -9 -17 -14
-31 -11 -31 2 0 14 18 25 40 17 33 26 40 50 40 17 0 30 -2 30 -5 0 -17 -56
-111 -85 -144 -43 -47 -102 -74 -226 -101 -81 -17 -86 -19 -35 -15 97 9 205
50 253 97 22 22 49 55 59 74 10 18 31 38 46 43 33 12 38 22 6 13 -16 -4 -20
-1 -16 9 8 22 18 65 12 52 -3 -7 -21 -13 -39 -13 -33 0 -34 0 -23 31 6 16 8
32 5 35 -2 3 -7 -7 -11 -21z"/>
<path d="M3164 2068 l-19 -23 23 19 c12 11 22 21 22 23 0 8 -8 2 -26 -19z"/>
<path d="M2030 2068 c0 -9 5 -20 10 -23 14 -9 12 -51 -2 -63 -7 -5 -39 -13
-70 -16 -43 -6 -64 -3 -87 9 -39 20 -44 51 -6 33 18 -8 34 -8 57 -1 l33 11
-50 3 c-27 1 -56 2 -62 2 -7 -1 -13 10 -13 23 0 13 -5 24 -10 24 -6 0 -8 -11
-4 -27 4 -16 7 -30 8 -33 0 -3 -14 -19 -32 -37 -39 -38 -40 -52 -5 -94 l27
-32 -71 7 c-55 5 -80 3 -110 -9 l-38 -16 48 -25 c27 -13 62 -24 78 -24 24 0
34 -7 47 -32 26 -49 77 -95 114 -102 67 -12 102 6 191 98 46 47 80 86 75 86
-4 0 -45 -38 -90 -84 -83 -84 -83 -84 -135 -85 -36 0 -53 5 -57 15 -3 8 0 14
7 14 8 0 8 3 2 8 -6 4 -12 17 -12 29 -2 22 12 29 116 62 l35 11 -21 -22 c-11
-13 -26 -33 -32 -45 -6 -13 -18 -23 -26 -23 -7 0 -17 -4 -20 -10 -11 -17 21
-11 38 8 10 9 31 35 48 57 32 41 76 72 87 60 4 -4 -4 -15 -17 -26 -13 -11 -21
-22 -18 -25 3 -3 20 13 38 35 18 23 41 41 50 41 19 0 23 -11 32 -81 5 -34 4
-36 -21 -32 l-27 3 28 -9 c15 -5 45 -25 66 -44 39 -36 102 -55 139 -43 11 4
42 -4 73 -19 41 -19 70 -25 124 -25 66 0 68 1 47 16 -13 9 -34 41 -48 72 -14
31 -32 64 -41 74 -15 17 -12 18 58 19 74 2 73 2 -26 9 -93 7 -131 17 -191 53
l-21 12 23 18 c12 9 39 17 59 17 54 0 184 -29 227 -51 47 -24 52 -24 113 6 28
14 59 25 70 25 12 0 16 3 9 10 -6 6 -22 6 -44 0 -46 -13 -102 -13 -137 1 -15
7 -50 18 -78 25 -46 13 -38 14 110 10 88 -3 175 -10 194 -15 19 -6 37 -9 39
-7 23 24 -314 45 -445 29 -63 -8 -71 -7 -60 5 18 22 94 52 135 53 20 1 29 3
19 6 -9 2 -15 8 -13 11 2 4 -10 8 -27 9 -20 2 -27 -1 -19 -6 9 -5 -1 -13 -32
-25 -25 -10 -67 -37 -93 -60 -26 -24 -58 -48 -70 -54 -29 -16 -85 -15 -107 1
-16 12 -16 14 3 31 12 11 35 18 63 18 24 0 58 8 78 19 26 15 28 18 10 13 -14
-3 -45 -9 -70 -11 -41 -5 -43 -4 -31 11 8 10 34 28 57 42 37 22 53 25 107 22
45 -2 68 1 77 10 10 11 5 12 -34 7 -29 -5 -46 -4 -46 3 0 6 6 13 13 16 6 3 -1
4 -17 0 -27 -5 -28 -4 -15 12 13 16 12 16 -9 5 -12 -7 -20 -16 -17 -22 4 -5 3
-8 -2 -7 -10 3 -96 -54 -137 -91 l-29 -26 13 25 c7 14 26 40 42 59 38 44 28
53 -11 9 -27 -30 -39 -51 -55 -100 -11 -34 -26 -18 -26 28 0 39 5 51 33 79 22
22 47 36 73 40 21 3 53 10 69 15 24 8 19 8 -24 4 -30 -3 -62 -9 -72 -15 -10
-5 -28 -9 -41 -9 -17 0 -20 -2 -9 -9 11 -7 4 -12 -27 -21 -23 -6 -42 -13 -42
-16 0 -2 12 -1 26 2 24 6 25 5 15 -14 -6 -11 -11 -34 -11 -50 0 -21 -5 -30
-15 -28 -21 3 -85 67 -85 85 -1 23 -39 90 -40 69z m-168 -95 c12 -10 53 -21
109 -29 87 -12 146 -35 134 -54 -3 -4 7 -13 22 -19 23 -9 15 -10 -42 -6 -70 5
-75 2 -21 -10 23 -5 27 -8 15 -16 -23 -15 -62 -10 -94 11 -32 21 -45 25 -45
13 0 -5 19 -17 42 -27 l42 -20 -29 -12 c-51 -22 -98 -17 -126 13 -13 14 -17
23 -9 18 8 -5 12 -4 7 0 -12 14 81 46 158 55 l70 9 -75 -4 c-50 -2 -91 -10
-122 -24 -52 -24 -74 -19 -102 21 -22 31 -20 45 9 73 29 30 33 30 57 8z m253
-55 l40 -42 -38 28 c-20 15 -54 33 -75 41 l-37 14 35 0 c30 1 43 -6 75 -41z
m260 -92 c14 -18 58 -41 73 -38 6 2 12 -2 12 -8 0 -6 6 -8 13 -4 6 4 9 4 5 -1
-4 -4 -48 -9 -98 -11 -81 -3 -92 -1 -115 19 l-26 22 51 -1 c28 0 56 -6 62 -12
7 -7 16 -12 21 -12 5 0 -2 9 -17 21 -18 14 -34 19 -54 15 -31 -7 -84 5 -89 20
-5 14 150 5 162 -10z m-149 -54 c4 -21 20 -43 45 -63 22 -17 39 -26 39 -20 0
6 -12 18 -27 28 -32 20 -43 33 -43 51 0 10 5 9 22 -2 12 -9 37 -16 55 -16 26
0 36 -6 48 -30 9 -16 12 -30 8 -30 -5 0 7 -9 25 -20 17 -11 32 -23 32 -26 0
-4 -7 -1 -15 6 -9 8 -28 10 -54 5 -49 -8 -121 21 -147 60 -9 14 -19 50 -22 78
-4 49 -3 51 12 32 8 -11 18 -35 22 -53z m-362 19 c-4 -3 -9 0 -11 7 -3 6 -10
9 -15 6 -7 -4 -8 -2 -4 5 6 9 11 9 22 0 8 -6 12 -15 8 -18z m11 -20 c3 -6 -3
-9 -14 -8 -11 0 -17 5 -15 9 7 11 22 10 29 -1z m582 -24 c9 0 10 -4 2 -13 -9
-11 -16 -10 -37 3 -39 25 -40 27 -7 18 17 -4 36 -8 42 -8z m-46 -18 c20 -10
20 -11 2 -26 -10 -8 -13 -12 -6 -9 6 4 14 3 17 -2 3 -5 -2 -9 -10 -9 -8 0 -22
13 -30 29 -16 30 -7 36 27 17z"/>
<path d="M2517 2045 c37 -20 73 -43 80 -51 6 -9 28 -25 48 -35 l37 -20 -19 31
c-29 50 -64 77 -122 94 -88 26 -97 18 -24 -19z"/>
<path d="M3138 2038 c6 -6 18 -8 28 -6 14 3 12 5 -9 10 -19 3 -25 2 -19 -4z"/>
<path d="M2158 2033 c7 -3 16 -2 19 1 4 3 -2 6 -13 5 -11 0 -14 -3 -6 -6z"/>
<path d="M2765 2024 c-86 -19 -97 -23 -40 -17 49 6 145 31 115 31 -8 0 -42 -7
-75 -14z"/>
<path d="M3958 2023 c-20 -23 -58 -91 -58 -104 0 -19 18 1 24 27 4 15 19 42
33 60 27 36 27 47 1 17z"/>
<path d="M4084 2019 l-19 -22 33 17 c34 18 40 26 19 26 -8 0 -22 -10 -33 -21z"/>
<path d="M3230 2016 c25 -7 54 -17 65 -20 12 -5 10 -2 -5 7 -14 9 -43 18 -65
21 l-40 6 45 -14z"/>
<path d="M4157 2023 c-10 -9 -9 -23 1 -23 5 0 9 7 9 15 0 17 -1 18 -10 8z"/>
<path d="M2815 2010 c-13 -6 -15 -9 -5 -9 8 0 22 4 30 9 18 12 2 12 -25 0z"/>
<path d="M2758 1993 c6 -2 18 -2 25 0 6 3 1 5 -13 5 -14 0 -19 -2 -12 -5z"/>
<path d="M2693 1983 c9 -2 25 -2 35 0 9 3 1 5 -18 5 -19 0 -27 -2 -17 -5z"/>
<path d="M4140 1980 c0 -5 5 -10 10 -10 6 0 10 5 10 10 0 6 -4 10 -10 10 -5 0
-10 -4 -10 -10z"/>
<path d="M3354 1960 c22 -33 20 -43 -10 -82 l-26 -33 31 33 c37 38 38 52 10
83 l-21 24 16 -25z"/>
<path d="M4044 1959 c-3 -6 0 -15 7 -20 13 -7 28 5 29 24 0 11 -28 8 -36 -4z"/>
<path d="M3220 1933 c12 -19 12 -25 -5 -45 l-20 -23 23 19 c26 23 28 39 5 57
-15 13 -15 12 -3 -8z"/>
<path d="M3803 1903 c-27 -59 -44 -123 -34 -123 4 0 12 15 18 33 6 17 20 56
32 85 26 65 12 69 -16 5z"/>
<path d="M4285 1880 c-33 -33 -55 -60 -49 -60 6 0 19 9 29 20 10 11 22 17 28
13 6 -3 7 -1 3 5 -4 7 -1 12 8 12 9 0 16 5 16 12 0 20 31 47 48 41 15 -4 15
-3 2 6 -8 6 -17 11 -20 11 -3 0 -32 -27 -65 -60z"/>
<path d="M4026 1913 c-6 -14 -5 -15 5 -6 7 7 10 15 7 18 -3 3 -9 -2 -12 -12z"/>
<path d="M4145 1911 c-84 -18 -185 -51 -185 -60 0 -4 18 -23 39 -44 30 -29 44
-37 60 -32 11 3 20 12 18 18 -1 8 17 13 51 15 30 2 50 7 47 13 -4 5 4 9 17 9
14 0 42 19 72 50 l50 50 -45 -1 c-24 -1 -80 -9 -124 -18z m15 -81 c0 -5 -6
-10 -14 -10 -8 0 -18 5 -21 10 -3 6 3 10 14 10 12 0 21 -4 21 -10z"/>
<path d="M3876 1878 c-3 -13 -6 -30 -6 -38 1 -13 2 -13 9 0 16 27 22 60 13 60
-5 0 -12 -10 -16 -22z"/>
<path d="M3924 1851 c4 -6 -26 -26 -72 -49 -44 -21 -93 -48 -110 -60 -38 -28
-45 -28 -37 1 16 55 16 63 1 37 -9 -14 -15 -33 -16 -42 0 -10 -4 -18 -8 -18
-5 0 -18 -13 -30 -29 l-21 -29 32 8 c18 4 72 18 121 30 49 12 97 19 108 17 10
-3 16 -1 13 4 -3 5 16 8 42 8 26 -1 59 3 72 8 l24 10 -43 47 c-41 44 -91 83
-76 57z m91 -91 c4 -6 -5 -10 -19 -10 -14 0 -26 5 -26 10 0 6 9 10 19 10 11 0
23 -4 26 -10z"/>
<path d="M3284 1834 c-18 -14 -18 -15 4 -4 12 6 22 13 22 15 0 8 -5 6 -26 -11z"/>
<path d="M3050 1819 c-37 -12 -44 -16 -20 -13 34 6 105 33 85 32 -5 0 -35 -8
-65 -19z"/>
<path d="M3165 1783 c-44 -19 -67 -32 -51 -28 30 6 158 64 141 63 -5 0 -46
-16 -90 -35z"/>
<path d="M2968 1793 c7 -3 16 -2 19 1 4 3 -2 6 -13 5 -11 0 -14 -3 -6 -6z"/>
<path d="M2928 1783 c7 -3 16 -2 19 1 4 3 -2 6 -13 5 -11 0 -14 -3 -6 -6z"/>
<path d="M2108 1743 c7 -3 16 -2 19 1 4 3 -2 6 -13 5 -11 0 -14 -3 -6 -6z"/>
<path d="M3058 1743 c7 -3 16 -2 19 1 4 3 -2 6 -13 5 -11 0 -14 -3 -6 -6z"/>
<path d="M2920 1725 c-45 -8 -61 -13 -40 -13 19 -1 64 5 100 12 81 17 41 17
-60 1z"/>
<path d="M2763 1703 c15 -2 39 -2 55 0 15 2 2 4 -28 4 -30 0 -43 -2 -27 -4z"/>
<path d="M2618 1693 c18 -2 45 -2 60 0 15 2 0 4 -33 4 -33 0 -45 -2 -27 -4z"/>
<path d="M1753 1495 c0 -49 2 -77 6 -61 9 42 29 44 34 4 4 -28 4 -27 3 7 -1
28 -5 40 -16 40 -11 0 -17 15 -21 50 -4 39 -6 30 -6 -40z"/>
<path d="M2000 1495 c0 -50 4 -85 10 -85 6 0 10 35 10 85 0 50 -4 85 -10 85
-6 0 -10 -35 -10 -85z"/>
<path d="M2090 1510 c0 -5 5 -10 10 -10 6 0 10 5 10 10 0 6 -4 10 -10 10 -5 0
-10 -4 -10 -10z"/>
<path d="M3010 1510 c0 -5 5 -10 10 -10 6 0 10 5 10 10 0 6 -4 10 -10 10 -5 0
-10 -4 -10 -10z"/>
<path d="M1699 1495 c-12 -55 15 -109 36 -75 3 6 -1 7 -9 4 -12 -5 -16 0 -16
20 0 14 6 26 13 26 8 0 9 3 1 8 -6 4 -13 14 -16 22 -4 11 -6 10 -9 -5z"/>
<path d="M2039 1495 c-2 -11 -3 -35 -1 -52 3 -24 9 -33 23 -33 10 0 19 4 19
10 0 5 -7 7 -15 4 -11 -5 -15 1 -15 19 0 16 7 27 18 30 15 4 15 5 0 6 -9 0
-18 9 -20 19 -4 15 -5 14 -9 -3z"/>
<path d="M2307 1504 c-9 -9 -9 -56 -1 -78 7 -18 34 -22 34 -5 0 5 -4 7 -10 4
-6 -4 -10 5 -10 19 0 14 6 26 13 26 8 0 9 3 1 8 -6 4 -13 13 -15 20 -3 7 -8
10 -12 6z"/>
<path d="M2458 1493 c-7 -32 6 -78 25 -81 9 -2 17 2 17 8 0 6 -4 8 -10 5 -6
-3 -10 5 -10 19 0 13 6 27 13 29 10 4 10 6 0 6 -7 1 -13 8 -13 16 0 21 -17 19
-22 -2z"/>
<path d="M1831 1476 c-19 -23 -10 -60 17 -64 12 -2 22 1 22 7 0 6 -6 8 -14 5
-8 -3 -17 -1 -21 5 -3 7 3 11 15 11 16 0 21 5 18 22 -4 27 -21 33 -37 14z m29
-16 c0 -5 -4 -10 -10 -10 -5 0 -10 5 -10 10 0 6 5 10 10 10 6 0 10 -4 10 -10z"/>
<path d="M2163 1482 c-31 -3 -33 -6 -32 -40 1 -36 2 -36 8 -8 8 39 24 39 32 1
l7 -30 1 33 c0 17 5 32 10 32 6 0 12 -15 14 -32 l4 -33 1 37 c2 42 -1 45 -45
40z"/>
<path d="M2247 1484 c-12 -13 -7 -24 8 -18 8 4 15 2 15 -4 0 -5 -9 -12 -20
-15 -32 -8 -25 -37 8 -37 28 0 29 2 23 37 -6 35 -20 51 -34 37z m23 -54 c0 -5
-4 -10 -10 -10 -5 0 -10 5 -10 10 0 6 5 10 10 10 6 0 10 -4 10 -10z"/>
<path d="M2360 1476 c-28 -35 13 -88 44 -56 8 9 6 11 -11 5 -14 -4 -23 -2 -23
4 0 6 6 11 14 11 22 0 30 19 16 35 -16 19 -24 19 -40 1z m30 -16 c0 -5 -4 -10
-10 -10 -5 0 -10 5 -10 10 0 6 5 10 10 10 6 0 10 -4 10 -10z"/>
<path d="M2521 1476 c-19 -23 -10 -60 17 -64 12 -2 22 1 22 7 0 6 -6 8 -14 5
-8 -3 -17 -1 -21 5 -3 7 3 11 15 11 16 0 21 5 18 22 -4 27 -21 33 -37 14z m29
-16 c0 -5 -4 -10 -10 -10 -5 0 -10 5 -10 10 0 6 5 10 10 10 6 0 10 -4 10 -10z"/>
<path d="M2587 1484 c-13 -14 -7 -26 7 -15 10 9 16 9 21 1 4 -7 -2 -14 -14
-17 -31 -8 -28 -43 5 -43 23 0 25 3 22 37 -3 36 -23 54 -41 37z m28 -54 c-3
-5 -10 -10 -16 -10 -5 0 -9 5 -9 10 0 6 7 10 16 10 8 0 12 -4 9 -10z"/>
<path d="M2691 1476 c-19 -23 -10 -60 17 -64 12 -2 22 1 22 7 0 6 -6 8 -14 5
-8 -3 -17 -1 -21 5 -3 7 3 11 15 11 16 0 21 5 18 22 -4 27 -21 33 -37 14z m29
-16 c0 -5 -4 -10 -10 -10 -5 0 -10 5 -10 10 0 6 5 10 10 10 6 0 10 -4 10 -10z"/>
<path d="M2750 1487 c0 -5 5 -17 10 -27 7 -13 7 -21 0 -25 -5 -3 -10 -11 -10
-17 0 -7 5 -7 14 1 11 9 15 9 19 -1 2 -7 8 -10 12 -5 5 4 4 12 -3 19 -8 8 -8
17 -1 30 6 11 8 22 5 25 -3 3 -8 -2 -12 -11 -6 -15 -7 -15 -20 1 -7 10 -14 14
-14 10z"/>
<path d="M2833 1483 c-9 -3 -13 -25 -12 -66 1 -34 4 -50 6 -34 2 15 8 27 13
27 16 0 41 46 34 64 -6 16 -18 19 -41 9z m25 -35 c-4 -27 -28 -36 -28 -10 0
20 8 32 22 32 5 0 8 -10 6 -22z"/>
<path d="M2901 1476 c-19 -23 -10 -60 17 -64 12 -2 22 1 22 7 0 6 -6 8 -14 5
-8 -3 -17 -1 -21 5 -3 7 3 11 15 11 16 0 21 5 18 22 -4 27 -21 33 -37 14z m29
-16 c0 -5 -4 -10 -10 -10 -5 0 -10 5 -10 10 0 6 5 10 10 10 6 0 10 -4 10 -10z"/>
<path d="M2978 1482 c-13 -2 -18 -13 -18 -38 0 -19 5 -34 10 -34 6 0 10 10 10
23 0 13 5 28 12 35 14 14 9 20 -14 14z"/>
<path d="M3050 1470 c-6 -12 -8 -30 -5 -40 7 -22 39 -27 51 -9 4 8 0 9 -15 4
-12 -4 -21 -2 -21 4 0 6 9 11 20 11 21 0 24 8 14 34 -9 22 -31 20 -44 -4z m26
-17 c-10 -10 -19 5 -10 18 6 11 8 11 12 0 2 -7 1 -15 -2 -18z"/>
<path d="M3121 1446 c1 -37 2 -38 8 -12 9 42 29 44 34 4 4 -28 4 -27 3 7 -1
34 -4 40 -23 41 -21 1 -23 -3 -22 -40z"/>
<path d="M3202 1478 c-17 -17 -15 -58 4 -65 8 -3 20 -1 26 5 7 7 4 10 -8 9
-13 -1 -20 6 -22 21 -4 24 22 32 32 10 3 -7 5 -4 3 6 -3 24 -19 30 -35 14z"/>
<path d="M3260 1470 c-6 -12 -8 -30 -5 -40 7 -22 39 -27 51 -9 4 8 0 9 -15 4
-12 -4 -21 -2 -21 4 0 6 9 11 20 11 21 0 24 8 14 34 -9 22 -31 20 -44 -4z m26
-17 c-10 -10 -19 5 -10 18 6 11 8 11 12 0 2 -7 1 -15 -2 -18z"/>
<path d="M1920 1461 c0 -35 12 -51 36 -51 21 0 24 4 23 38 l-1 37 -10 -32
c-14 -41 -28 -43 -28 -3 0 17 -4 30 -10 30 -5 0 -10 -9 -10 -19z"/>
<path d="M2090 1445 c0 -19 5 -35 10 -35 6 0 10 16 10 35 0 19 -4 35 -10 35
-5 0 -10 -16 -10 -35z"/>
<path d="M3010 1445 c0 -19 5 -35 10 -35 6 0 10 16 10 35 0 19 -4 35 -10 35
-5 0 -10 -16 -10 -35z"/>
</g>
</svg>
